<svg width="94" height="94" viewBox="0 0 94 94" fill="none" xmlns="http://www.w3.org/2000/svg">
<circle cx="47" cy="47" r="47" fill="#EFF2FF"/>
<path d="M78.3569 36.1538H66.2668V41.863H72.9835C74.3269 48.5797 69.7371 50.2589 67.2743 50.2589H60.5576V55.2964H68.6177C75.3344 55.0277 78.2449 48.4678 78.3569 45.2214V36.1538Z" fill="white" stroke="#3E3E3E" stroke-linejoin="round"/>
<path d="M32.9693 60.5333C25.8368 55.8147 23.4124 47.4018 23.0967 43.7774V31.5195H67.2167V43.799C67.2167 48.1062 65.5323 51.9599 63.4009 55.0412C61.2927 58.0889 58.7687 60.3493 57.0818 61.5058C54.5369 62.3283 50.2966 63.2615 45.7958 63.4016C41.2447 63.5432 36.5034 62.8713 32.9693 60.5333Z" fill="#849FFF" stroke="#3E3E3E" stroke-linejoin="round"/>
<path d="M27.6849 68.5754C24.6571 69.1258 22.4283 64.4478 21.6924 62.04H69.6324C69.6324 66.1677 66.0579 68.1168 64.2707 68.5754C53.337 68.3461 30.7127 68.0251 27.6849 68.5754Z" fill="white" stroke="#3E3E3E" stroke-linejoin="round"/>
</svg>
