<svg width="94" height="94" viewBox="0 0 94 94" fill="none" xmlns="http://www.w3.org/2000/svg">
<circle cx="47" cy="47" r="47" fill="#EFF2FF"/>
<mask id="mask0_1203_4771" style="mask-type:alpha" maskUnits="userSpaceOnUse" x="0" y="0" width="94" height="94">
<circle cx="47" cy="47" r="47" fill="#EFF2FF"/>
</mask>
<g mask="url(#mask0_1203_4771)">
<path d="M-28.345 64.9151L-32.9187 67.912C-36.3029 70.1295 -38.3418 73.9031 -38.3418 77.9492V85.6364C-38.3418 92.2928 -32.924 97.6773 -26.2677 97.6362L114.258 96.7687C120.451 96.7305 125.598 91.9855 126.138 85.8158L126.769 78.6157C127.154 74.2127 125.088 69.9541 121.392 67.5317L117.398 64.9151C113.404 62.2979 108.239 62.2979 104.244 64.9151L100.825 67.1559C96.8305 69.7731 91.6648 69.7731 87.6707 67.1559L84.2509 64.9151C80.2569 62.2979 75.0911 62.2979 71.0971 64.9151L67.6772 67.1559C63.6832 69.7731 58.5175 69.7731 54.5234 67.1559L51.1036 64.9151C47.1095 62.2979 41.9438 62.2979 37.9497 64.9151L34.5299 67.1559C30.5358 69.7731 25.3701 69.7731 21.376 67.1559L17.9562 64.9151C13.9621 62.2979 8.7964 62.2979 4.80232 64.9151L1.3825 67.1559C-2.61157 69.7731 -7.77729 69.7731 -11.7714 67.1559L-15.1912 64.9151C-19.1853 62.2979 -24.351 62.2979 -28.345 64.9151Z" fill="#849FFF" stroke="#3E3E3E"/>
</g>
<path fill-rule="evenodd" clip-rule="evenodd" d="M25.7595 49.7117C27.3087 48.6495 29.6147 47.5879 31.9564 47.6559C34.298 47.7238 37.9608 50.1638 38.4148 53.3229C32.9897 49.2255 28.0995 50.2944 25.4131 51.3347C25.2126 51.4123 24.9965 51.3639 24.845 51.2072C21.7818 48.0413 16.269 47.6559 11.9874 49.0425C12.6536 47.0002 16.0256 45.7697 18.0768 45.6444C20.735 45.482 23.7828 46.3102 25.7595 49.7117Z" fill="#849FFF" stroke="black" stroke-linejoin="round"/>
<path fill-rule="evenodd" clip-rule="evenodd" d="M43.4309 27.4011C45.0084 25.247 47.6013 22.7373 50.7738 21.7259C53.9463 20.7144 60.0076 22.262 62.1041 26.2851C52.8987 23.3445 47.3196 27.07 44.2066 29.7301C43.9743 29.9287 43.6616 29.9654 43.3846 29.8267C37.7857 27.0232 29.7346 29.1127 24.6454 32.9886C24.5772 29.9358 28.52 26.6978 31.212 25.5639C34.7006 24.0944 39.1782 23.7698 43.4309 27.4011Z" fill="#849FFF" stroke="black" stroke-linejoin="round"/>
<path fill-rule="evenodd" clip-rule="evenodd" d="M68.3717 42.0366C69.4018 40.4739 71.4035 38.4764 73.5898 37.6587C76.064 36.7332 78.9137 37.1762 81.5111 39.5995C81.741 39.814 81.8126 40.1776 81.6803 40.4597C81.5481 40.7417 81.2507 40.8599 80.9767 40.7392C78.9609 39.8511 73.6214 39.0916 68.9352 43.5136C68.7794 43.6607 68.5617 43.6972 68.363 43.6096C66.3472 42.7216 61.0076 41.962 56.3215 46.3839C56.147 46.5486 55.8972 46.5731 55.6846 46.4466C55.472 46.32 55.3368 46.0662 55.3399 45.7995C55.3447 45.3814 55.5188 44.9567 55.7272 44.5881C56.5809 43.0789 58.1408 41.5991 59.6816 40.8587C62.0734 39.7094 65.2687 39.641 68.3717 42.0366Z" fill="#849FFF" stroke="black" stroke-linejoin="round"/>
</svg>
