<svg width="94" height="94" viewBox="0 0 94 94" fill="none" xmlns="http://www.w3.org/2000/svg">
<circle cx="47" cy="47" r="47" fill="#EFF2FF"/>
<rect x="28.0107" y="35.0923" width="38.9187" height="5.14133" rx="2.5" fill="white" stroke="#3E3E3E" stroke-linejoin="round"/>
<path d="M30.0557 43.7578L30.0557 59.2054C30.0557 60.0338 30.7272 60.7054 31.5557 60.7054L36.2206 60.7054L36.2206 42.2578L31.5557 42.2578C30.7272 42.2578 30.0557 42.9294 30.0557 43.7578Z" fill="#849FFF" stroke="#3E3E3E" stroke-linejoin="round"/>
<rect x="0.5" y="0.5" width="18.4476" height="6.16489" transform="matrix(-4.37114e-08 1 1 4.37114e-08 43.8867 41.7578)" fill="#849FFF" stroke="#3E3E3E" stroke-linejoin="round"/>
<path d="M58.7168 42.2578L58.7168 60.7054L63.3817 60.7054C64.2101 60.7054 64.8817 60.0338 64.8817 59.2054L64.8817 43.7578C64.8817 42.9294 64.2101 42.2578 63.3817 42.2578L58.7168 42.2578Z" fill="#849FFF" stroke="#3E3E3E" stroke-linejoin="round"/>
<path d="M26.589 66.2612L28.0593 64.1199C28.4323 63.5766 29.049 63.252 29.7081 63.252H65.7794C66.492 63.252 67.1507 63.6311 67.5087 64.2472L68.7528 66.3886C69.5274 67.7219 68.5655 69.3933 67.0235 69.3933H28.2378C26.628 69.3933 25.6778 67.5883 26.589 66.2612Z" fill="white" stroke="#3E3E3E" stroke-linejoin="round"/>
<path d="M24.4033 30.3377V32.5384H70.4995V30.3377L47.6419 25.3076L24.4033 30.3377Z" fill="#849FFF" stroke="#3E3E3E" stroke-linejoin="round"/>
</svg>
