<svg width="240" height="240" viewBox="0 0 240 240" fill="none" xmlns="http://www.w3.org/2000/svg">
<circle cx="120" cy="120" r="118.5" fill="#303030" stroke="url(#paint0_linear_1256_2710)" stroke-width="3"/>
<path d="M69.71 123.36H48.78V126.064H69.71V123.36ZM67.24 119.018V116.288H54.838V110.464H67.058V107.734H51.432V119.018H67.24ZM84.8481 123.048C84.6921 122.112 84.5881 121.202 84.4841 120.266C81.7801 120.786 78.5301 120.916 76.3201 120.916H75.6961V116.548H82.8981V107.812H72.1861V110.49H79.4401V113.844H72.2121V123.724C73.3561 123.724 74.4221 123.776 75.5661 123.776C78.9981 123.776 82.7421 123.438 84.8481 123.048ZM89.4501 105.888H86.0441V129.054H89.4501V117.458H92.6481V114.624H89.4501V105.888ZM113.012 129.054V105.888H109.58V129.054H113.012ZM94.3962 115.742C94.3962 120.526 96.6582 124.036 100.454 124.036C104.302 124.036 106.564 120.5 106.564 115.742C106.564 110.88 104.302 107.37 100.454 107.37C96.6582 107.37 94.3962 110.88 94.3962 115.742ZM103.34 115.742C103.34 119.226 102.118 121.046 100.454 121.046C98.8942 121.046 97.6722 119.226 97.6722 115.742C97.6722 112.206 98.8942 110.412 100.454 110.412C102.118 110.412 103.34 112.206 103.34 115.742ZM137.198 125.96V123.23H116.268V125.96H137.198ZM134.754 119.486V107.682H131.296V111.088H122.118V107.656H118.686V119.486H134.754ZM131.296 116.808H122.118V113.766H131.296V116.808ZM164.21 124.634C164.21 122.008 161.168 120.37 156.02 120.37C150.924 120.37 147.882 122.008 147.882 124.634C147.882 127.156 150.924 128.872 156.072 128.872C161.168 128.872 164.21 127.156 164.21 124.634ZM165.692 112.986C162.728 112.96 159.27 111.348 158.256 109.372H164.574V106.668H147.674V109.372H153.836C152.978 111.322 149.988 112.908 146.4 113.038L147.752 115.69C151.106 115.508 154.824 114 156.046 111.53C157.502 113.922 161.272 115.508 164.34 115.69L165.692 112.986ZM166.524 119.538V116.86H157.762V114.286H154.33V116.86H145.594V119.538H166.524ZM160.648 124.686C160.648 125.544 158.828 126.272 156.02 126.272C153.29 126.272 151.47 125.544 151.47 124.686C151.47 123.724 153.29 123.022 156.02 123.022C158.828 123.022 160.648 123.724 160.648 124.686ZM187.019 120.11V117.38H174.149V114.962H186.421V107.214H170.691V109.97H182.989V112.206H170.717V120.11H173.265V123.49H168.091V126.194H189.021V123.49H183.847V120.11H187.019ZM176.593 120.11H180.571V123.49H176.593V120.11Z" fill="#DBDBDB"/>
<defs>
<linearGradient id="paint0_linear_1256_2710" x1="13" y1="-10.5" x2="240" y2="240" gradientUnits="userSpaceOnUse">
<stop stop-color="#EBEBEB"/>
<stop offset="1" stop-color="#466FFF"/>
</linearGradient>
</defs>
</svg>
