<svg width="94" height="94" viewBox="0 0 94 94" fill="none" xmlns="http://www.w3.org/2000/svg">
<circle cx="47" cy="47" r="47" fill="#EFF2FF"/>
<path d="M74.1096 45.1924H19.8848V62.1842C21.2619 67.106 24.6665 67.9459 26.1966 67.7505H68.3715C73.1915 68.2193 74.2052 64.235 74.1096 62.1842V53.6883V45.1924Z" fill="white" stroke="#3E3E3E" stroke-linejoin="round"/>
<circle cx="47.1422" cy="49.6837" r="13.0572" fill="white" stroke="#3E3E3E" stroke-linejoin="round"/>
<path fill-rule="evenodd" clip-rule="evenodd" d="M19.8848 45.1922V37.2599C19.8848 35.5602 21.0836 32.2173 25.8787 32.4439H37.0103L39.8645 26.2114H54.1358L56.99 32.4439H68.9779C70.5953 32.6328 73.8872 33.9737 74.1155 37.8265V45.1922H59.5828C57.4971 40.3893 52.7116 37.0303 47.1416 37.0303C41.5717 37.0303 36.7862 40.3893 34.7005 45.1922H19.8848Z" fill="#849FFF"/>
<path d="M19.8848 45.1922H19.3848C19.3848 45.4683 19.6086 45.6922 19.8848 45.6922V45.1922ZM25.8787 32.4439L25.8551 32.9434C25.8629 32.9438 25.8708 32.9439 25.8787 32.9439V32.4439ZM37.0103 32.4439V32.9439C37.2058 32.9439 37.3834 32.8299 37.4649 32.6521L37.0103 32.4439ZM39.8645 26.2114V25.7114C39.669 25.7114 39.4914 25.8254 39.4099 26.0032L39.8645 26.2114ZM54.1358 26.2114L54.5904 26.0032C54.5089 25.8254 54.3313 25.7114 54.1358 25.7114V26.2114ZM56.99 32.4439L56.5354 32.6521C56.6169 32.8299 56.7945 32.9439 56.99 32.9439V32.4439ZM68.9779 32.4439L69.0359 31.9473C69.0166 31.9451 68.9973 31.9439 68.9779 31.9439V32.4439ZM74.1155 37.8265H74.6155C74.6155 37.8166 74.6152 37.8068 74.6147 37.7969L74.1155 37.8265ZM74.1155 45.1922V45.6922C74.3917 45.6922 74.6155 45.4683 74.6155 45.1922H74.1155ZM59.5828 45.1922L59.1242 45.3914C59.2035 45.574 59.3836 45.6922 59.5828 45.6922V45.1922ZM34.7005 45.1922V45.6922C34.8996 45.6922 35.0798 45.574 35.1591 45.3914L34.7005 45.1922ZM19.3848 37.2599V45.1922H20.3848V37.2599H19.3848ZM25.9023 31.9445C23.3738 31.825 21.7209 32.6505 20.7085 33.7989C19.7143 34.9267 19.3848 36.3124 19.3848 37.2599H20.3848C20.3848 36.5077 20.6547 35.3721 21.4586 34.4602C22.2444 33.5689 23.5884 32.8363 25.8551 32.9434L25.9023 31.9445ZM37.0103 31.9439H25.8787V32.9439H37.0103V31.9439ZM39.4099 26.0032L36.5557 32.2358L37.4649 32.6521L40.3191 26.4196L39.4099 26.0032ZM54.1358 25.7114H39.8645V26.7114H54.1358V25.7114ZM57.4446 32.2358L54.5904 26.0032L53.6812 26.4196L56.5354 32.6521L57.4446 32.2358ZM68.9779 31.9439H56.99V32.9439H68.9779V31.9439ZM74.6147 37.7969C74.4912 35.7138 73.5315 34.2893 72.3794 33.3703C71.2423 32.4634 69.9234 32.0509 69.0359 31.9473L68.9199 32.9406C69.6498 33.0258 70.7855 33.3782 71.7558 34.1521C72.7111 34.9141 73.5115 36.0864 73.6164 37.8561L74.6147 37.7969ZM74.6155 45.1922V37.8265H73.6155V45.1922H74.6155ZM59.5828 45.6922H74.1155V44.6922H59.5828V45.6922ZM47.1416 37.5303C52.5054 37.5303 57.1149 40.7646 59.1242 45.3914L60.0414 44.993C57.8792 40.0141 52.9178 36.5303 47.1416 36.5303V37.5303ZM35.1591 45.3914C37.1684 40.7646 41.7779 37.5303 47.1416 37.5303V36.5303C41.3655 36.5303 36.4041 40.0141 34.2419 44.993L35.1591 45.3914ZM19.8848 45.6922H34.7005V44.6922H19.8848V45.6922Z" fill="#3E3E3E"/>
<circle cx="47.4321" cy="49.9736" r="7.57665" fill="#849FFF" stroke="#3E3E3E" stroke-linejoin="round"/>
<rect x="42.1611" y="29.1284" width="10.5381" height="1.30761" rx="0.653806" fill="#466FFF" stroke="#3E3E3E" stroke-linejoin="round"/>
</svg>
