<svg width="16" height="20" viewBox="0 0 16 20" fill="none" xmlns="http://www.w3.org/2000/svg">
<path fill-rule="evenodd" clip-rule="evenodd" d="M15.2381 7.66048C15.2381 9.68785 14.4548 11.5313 13.1759 12.9015L8.51734 18.9184C7.64427 20.3605 7.59382 20.3605 6.72075 18.9184L2.06223 12.9015C0.783308 11.5313 0 9.68786 0 7.66048C0 3.42971 3.41116 0 7.61905 0C11.8269 0 15.2381 3.42971 15.2381 7.66048ZM7.61905 10.8148C9.35171 10.8148 10.7563 9.40256 10.7563 7.66048C10.7563 5.9184 9.35171 4.50617 7.61905 4.50617C5.88639 4.50617 4.48179 5.9184 4.48179 7.66048C4.48179 9.40256 5.88639 10.8148 7.61905 10.8148Z" fill="#3C3C43" fill-opacity="0.6"/>
</svg>
