<svg width="94" height="94" viewBox="0 0 94 94" fill="none" xmlns="http://www.w3.org/2000/svg">
<circle cx="47" cy="47" r="47" fill="#EFF2FF"/>
<path d="M23.6842 66.4421L41.6931 48.6982L46.1682 52.9495L28.6069 70.2458C27.9352 70.9171 26.8169 71.5883 24.5791 71.3646C21.6796 71.0747 22.4909 67.7846 23.6842 66.4421Z" fill="#849FFF" stroke="#3E3E3E"/>
<path d="M50.0822 47.9924L46.0547 43.9649L49.6376 40.4872L47.6239 38.4735C46.1919 37.0416 46.5843 35.2858 47.6239 34.2223L61.0578 22.5962L62.1588 23.6972C62.1588 23.6972 56.0747 31.2185 55.2314 32.4323C54.3882 33.6462 54.1169 34.2223 54.7839 34.8936C55.6227 35.7377 56.5266 35.2858 57.0214 34.8936L65.5651 27.1512L66.9208 28.5069C66.9208 28.5069 60.3636 36.4339 59.7064 37.1311C59.0492 37.8282 58.9904 38.8161 59.7064 39.3531C60.5939 40.0187 61.4611 39.3531 61.9439 38.921C62.4267 38.489 71.1881 31.4682 70.9027 31.7699L71.892 32.5742C68.7285 37.1311 63.0179 44.7385 61.0489 46.5285C59.0799 48.3185 57.3943 47.7219 56.7977 47.1998L53.8889 44.291L50.0822 47.9924Z" fill="#849FFF" stroke="#3E3E3E"/>
<path d="M29.5019 37.5791C23.4159 31.8512 25.7727 26.3917 27.7119 24.3779L68.8818 65.1003C70.0006 65.9207 71.8801 68.0986 70.4481 70.2465C69.0161 72.3945 66.8681 71.1415 65.9731 70.2465L49.295 54.2666L47.867 55.9443C44.8837 52.8118 35.5879 43.3071 29.5019 37.5791Z" fill="white" stroke="#3E3E3E"/>
</svg>
