<svg width="76" height="76" viewBox="0 0 76 76" fill="none" xmlns="http://www.w3.org/2000/svg">
<path d="M76 38C76 58.9868 58.9868 76 38 76C17.0132 76 0 58.9868 0 38C0 17.0132 17.0132 0 38 0C58.9868 0 76 17.0132 76 38Z" fill="#EAEAEE"/>
<path fill-rule="evenodd" clip-rule="evenodd" d="M53 33.321C53 37.3757 51.3333 40.2222 48.94 43.803L39.7685 55.8368C38.5556 57.4444 37.4444 57.4444 36.2315 55.8368L27.06 43.803C24.6667 40.7778 23 37.3757 23 33.321C23 24.8594 29.7157 18 38 18C46.2843 18 53 24.8594 53 33.321ZM38 39.6296C41.4112 39.6296 44.1765 36.8051 44.1765 33.321C44.1765 29.8368 41.4112 27.0123 38 27.0123C34.5888 27.0123 31.8235 29.8368 31.8235 33.321C31.8235 36.8051 34.5888 39.6296 38 39.6296Z" fill="#4B4B4B" stroke="#4B4B4B"/>
</svg>
