<svg width="94" height="94" viewBox="0 0 94 94" fill="none" xmlns="http://www.w3.org/2000/svg">
<circle cx="47" cy="47" r="47" fill="#EFF2FF"/>
<path d="M29.9834 58.2406L37.7499 52.1996C39.565 50.7878 42.0964 50.7513 43.9514 52.1102C45.8577 53.5067 46.5681 56.0219 45.674 58.2093L42.0189 67.1521C41.0849 69.4373 39.0912 71.1535 36.6994 71.765C31.999 72.9667 27.2933 69.5966 27.0217 64.7526C26.8801 62.2274 27.9871 59.7935 29.9834 58.2406Z" fill="white" stroke="#3E3E3E"/>
<path d="M67.4498 49.4647L57.6158 49.787C55.3175 49.8623 53.2481 48.4039 52.5462 46.2142C51.8248 43.9639 52.7284 41.5115 54.7375 40.2674L62.951 35.1809C65.0498 33.8812 67.6715 33.6646 69.9659 34.5757C74.4749 36.3664 76.3011 41.8588 73.6736 45.9373C72.3039 48.0635 69.9777 49.3819 67.4498 49.4647Z" fill="white" stroke="#3E3E3E"/>
<path d="M54.9114 29.4829L52.179 38.9352C51.5404 41.1442 49.5139 42.6617 47.2145 42.6526C44.8514 42.6433 42.7983 41.0261 42.2358 38.7309L39.9365 29.3476C39.3489 26.9499 39.953 24.3895 41.5286 22.489C44.625 18.754 50.4129 18.7145 53.4799 22.4737C55.0787 24.4334 55.6138 27.0531 54.9114 29.4829Z" fill="white" stroke="#3E3E3E"/>
<path d="M31.3643 34.7477L39.5096 40.2673C41.4133 41.5573 42.2302 43.9535 41.511 46.1376C40.772 48.3822 38.5994 49.835 36.2427 49.6607L26.6082 48.9479C24.1462 48.7658 21.8979 47.4 20.5772 45.3143C17.9819 41.2153 19.7328 35.6984 24.2558 33.9432C26.6137 33.0282 29.2705 33.3289 31.3643 34.7477Z" fill="white" stroke="#3E3E3E"/>
<path d="M52.6357 67.379L49.2904 58.1259C48.5085 55.9634 49.2561 53.5446 51.1217 52.2003C53.0389 50.8188 55.6505 50.9204 57.4546 52.4467L64.8302 58.6864C66.7149 60.2809 67.7311 62.7073 67.5735 65.171C67.2639 70.0127 62.6046 73.4467 57.9138 72.2081C55.4684 71.5625 53.4957 69.7575 52.6357 67.379Z" fill="white" stroke="#3E3E3E"/>
<circle cx="47.6132" cy="47.7333" r="8.01529" transform="rotate(-35.7749 47.6132 47.7333)" fill="#849FFF" stroke="#3E3E3E"/>
</svg>
