<svg width="95" height="94" viewBox="0 0 95 94" fill="none" xmlns="http://www.w3.org/2000/svg">
<ellipse cx="47.6583" cy="46.7512" rx="46.8848" ry="46.7512" fill="#EFF2FF"/>
<mask id="mask0_1203_5110" style="mask-type:alpha" maskUnits="userSpaceOnUse" x="1" y="0" width="94" height="94">
<ellipse cx="47.8887" cy="47.2488" rx="46.8848" ry="46.7512" fill="#D9D9D9"/>
</mask>
<g mask="url(#mask0_1203_5110)">
<path d="M-4.6846 50.0792L-8.89909 52.886C-11.9618 54.9257 -13.8018 58.3617 -13.8018 62.0415V127.291C-13.8018 133.366 -8.87689 138.291 -2.80176 138.291H138.622C145.393 138.291 150.556 132.232 149.483 125.547L139.105 60.898C138.619 57.8716 136.893 55.1851 134.341 53.4861L129.226 50.0792C125.533 47.6199 120.724 47.6199 117.031 50.0792L114.011 52.0904C110.319 54.5497 105.51 54.5497 101.817 52.0904L98.7969 50.0792C95.1041 47.6199 90.2952 47.6199 86.6023 50.0792L83.5825 52.0904C79.8896 54.5497 75.0807 54.5497 71.3878 52.0904L68.368 50.0792C64.6751 47.6199 59.8662 47.6199 56.1733 50.0792L53.1535 52.0904C49.4606 54.5497 44.6517 54.5497 40.9588 52.0904L37.939 50.0792C34.2461 47.6199 29.4372 47.6199 25.7444 50.0792L22.7245 52.0904C19.0316 54.5497 14.2228 54.5497 10.5299 52.0904L7.51005 50.0792C3.81717 47.6199 -0.991715 47.6199 -4.6846 50.0792Z" fill="#849FFF" stroke="#3E3E3E"/>
<path d="M-6.25379 60.8704L-11.1974 64.027C-14.1176 65.8917 -15.9887 69.0232 -16.2469 72.4783L-19.0872 110.476C-19.5641 116.856 -14.5159 122.296 -8.11778 122.296H128.191C134.266 122.296 139.191 117.371 139.191 111.296V73.0167C139.191 69.2618 137.276 65.7663 134.111 63.7455L129.608 60.8704C125.998 58.5653 121.378 58.5653 117.768 60.8704L114.105 63.2093C110.495 65.5144 105.876 65.5144 102.266 63.2093L98.6026 60.8704C94.9926 58.5653 90.3728 58.5653 86.7628 60.8704L83.0998 63.2093C79.4898 65.5144 74.87 65.5144 71.26 63.2093L67.5971 60.8704C63.987 58.5653 59.3673 58.5653 55.7572 60.8704L52.0943 63.2093C48.4843 65.5144 43.8645 65.5144 40.2545 63.2093L36.5915 60.8704C32.9815 58.5653 28.3617 58.5653 24.7517 60.8704L21.0888 63.2093C17.4788 65.5144 12.859 65.5144 9.24897 63.2093L5.58603 60.8704C1.97601 58.5653 -2.64377 58.5653 -6.25379 60.8704Z" fill="white" stroke="#3E3E3E"/>
<path d="M-5.42403 75.5112L-8.72329 77.8408C-11.9079 80.0894 -13.8018 83.745 -13.8018 87.6435V95.4528C-13.8018 102.111 -8.3804 107.497 -1.72194 107.453L126.16 106.602C132.38 106.561 137.537 101.774 138.041 95.5741L138.636 88.2516C138.98 84.0217 137.064 79.9248 133.597 77.477L130.813 75.5112C126.664 72.5815 121.119 72.5815 116.97 75.5112L115.514 76.5394C111.365 79.4692 105.82 79.4692 101.671 76.5394L100.215 75.5112C96.0653 72.5815 90.5208 72.5815 86.3715 75.5112L84.9153 76.5394C80.766 79.4692 75.2216 79.4692 71.0723 76.5394L69.6161 75.5112C65.4667 72.5815 59.9223 72.5815 55.773 75.5112L54.3168 76.5394C50.1675 79.4692 44.623 79.4692 40.4737 76.5394L39.0175 75.5112C34.8682 72.5815 29.3238 72.5815 25.1745 75.5112L23.7183 76.5394C19.569 79.4692 14.0245 79.4692 9.87523 76.5394L8.41903 75.5112C4.26972 72.5815 -1.27472 72.5815 -5.42403 75.5112Z" fill="#849FFF" stroke="#3E3E3E"/>
</g>
</svg>
