<svg width="76" height="76" viewBox="0 0 76 76" fill="none" xmlns="http://www.w3.org/2000/svg">
<path d="M76 38C76 58.9868 58.9868 76 38 76C17.0132 76 0 58.9868 0 38C0 17.0132 17.0132 0 38 0C58.9868 0 76 17.0132 76 38Z" fill="#EAEAEE"/>
<path d="M15 53L25 24H51L62 53H15Z" fill="white" stroke="#403D3D"/>
<path d="M21 53L30 24H46L56 53H21Z" fill="#4B4B4B"/>
<path fill-rule="evenodd" clip-rule="evenodd" d="M37 31.8V27H39V31.8H37ZM37 41.4V35.6H39V41.4H37ZM37 52V46.2H39V52H37Z" fill="white"/>
</svg>
