<svg width="94" height="94" viewBox="0 0 94 94" fill="none" xmlns="http://www.w3.org/2000/svg">
<circle cx="47" cy="47" r="46.5" fill="#EFF2FF" stroke="#EFF2FF"/>
<path d="M56.1603 31.1069C45.0909 36.8533 42.9525 49.1163 43.267 54.5295C43.5185 55.279 44.0008 54.8418 44.2106 54.5295C46.7263 48.5333 55.7411 40.7883 59.9341 37.6653C55.6573 40.9133 50.1566 50.8861 47.6409 55.4665C47.6409 55.4665 46.6215 57.2362 47.0408 57.3403C52.0723 57.3403 59.41 52.7599 62.4498 50.4697C69.494 45.4729 73.1418 34.6464 74.0852 29.8578C74.5884 26.8597 73.8756 26.3183 73.4563 26.4224C68.1732 25.6729 59.7243 29.2331 56.1603 31.1069Z" fill="#849FFF" stroke="#3E3E3E" stroke-linejoin="round"/>
<path d="M27.6206 62.0284C23.2777 56.9998 19.5574 45.9368 18.9814 40.9082C26.4457 39.5673 36.2598 44.2606 40.7522 47.2778C49.5987 54.7872 51.9255 65.0455 51.4647 68.7332C51.4647 68.9567 51.3956 69.4707 51.1192 69.7389C50.8427 70.0071 50.6584 69.8506 50.428 69.7389C47.387 63.3023 38.4484 55.994 34.532 52.9769C36.2598 54.7648 40.1993 59.4135 43.5167 63.7046C46.8341 67.9956 47.4331 71.0799 47.3179 72.0856C40.1301 73.6947 31.1915 66.163 27.6206 62.0284Z" fill="white" stroke="#3E3E3E" stroke-linejoin="round"/>
</svg>
